<?xml version="1.0"?>
<svg xmlns="http://www.w3.org/2000/svg" height="512px" viewBox="0 0 480.00048 480" width="512px" class=""><g><path d="m360 103.601562v320.398438c0 26.511719-21.492188 48-48 48h-256c-26.507812 0-48-21.488281-48-48v-320c0-26.507812 21.492188-48 48-48h256c26.339844.03125 47.75 21.257812 48 47.601562zm0 0" fill="#00e7f0" data-original="#00E7F0" class="" style="fill:#B9BCE0" data-old_color="#00E7F0"/><path d="m360 103.601562v320.398438c0 26.511719-21.492188 48-48 48h-256c-26.507812 0-48-21.488281-48-48v-6.078125c150.792969-59.878906 275.503906-171.238281 352-314.320313zm0 0" fill="#00d7df" data-original="#00D7DF" class="active-path" style="fill:#979BB8" data-old_color="#8E91AA"/><path d="m272 112v16h-176v-16c0-26.480469 21.519531-32 48-32v-40c0-17.671875 14.328125-32 32-32h16c17.671875 0 32 14.328125 32 32v40c26.480469 0 48 5.519531 48 32zm0 0" fill="#ffb655" data-original="#FFB655" class=""/><path d="m200 48c0 8.835938-7.164062 16-16 16s-16-7.164062-16-16 7.164062-16 16-16 16 7.164062 16 16zm0 0" fill="#ff6243" data-original="#FF6243"/><path d="m472 352h-80l24 48h32zm0 0" fill="#ff6243" data-original="#FF6243"/><path d="m392 160h80v192h-80zm0 0" fill="#ff7956" data-original="#FF7956" class=""/><path d="m432 448c8.835938 0 16-7.164062 16-16v-32h-32v32c0 8.835938 7.164062 16 16 16zm0 0" fill="#898890" data-original="#898890"/><path d="m448 160h24v-32h-80v32zm0 0" fill="#ffa733" data-original="#FFA733"/><path d="m472 104c0-4.417969-3.582031-8-8-8h-64c-4.417969 0-8 3.582031-8 8v24h80zm0 0" fill="#ff7956" data-original="#FF7956" class=""/><path d="m456 56c0-4.417969-3.582031-8-8-8h-32c-4.417969 0-8 3.582031-8 8v40h48zm0 0" fill="#ff6243" data-original="#FF6243"/><path d="m416 232c0 4.417969 3.582031 8 8 8h16c4.417969 0 8-3.582031 8-8v-72h-32zm0 0" fill="#ffb655" data-original="#FFB655" class=""/><path d="m312 48h-80v-8c-.027344-22.082031-17.917969-39.9726562-40-40h-16c-22.082031.0273438-39.972656 17.917969-40 40v8h-80c-30.914062.035156-55.9648438 25.085938-56 56v320c.0351562 30.914062 25.085938 55.964844 56 56h256c30.914062-.035156 55.964844-25.085938 56-56v-320c-.035156-30.914062-25.085938-55.964844-56-56zm-160 32v-40c0-13.253906 10.746094-24 24-24h16c13.253906 0 24 10.746094 24 24v40c0 4.417969 3.582031 8 8 8 33.191406 0 40 9.601562 40 24v8h-160v-8c0-14.398438 6.808594-24 40-24 4.417969 0 8-3.582031 8-8zm200 344c-.027344 22.082031-17.917969 39.972656-40 40h-256c-22.082031-.027344-39.972656-17.917969-40-40v-320c.027344-22.082031 17.917969-39.972656 40-40h80v8.144531c-17.65625.800781-48 5.917969-48 39.855469v16c0 4.417969 3.582031 8 8 8h176c4.417969 0 8-3.582031 8-8v-16c0-33.9375-30.34375-39.078125-48-39.855469v-8.144531h80c22.082031.027344 39.972656 17.917969 40 40zm0 0" data-original="#000000" class="" style="fill:#000000"/><path d="m184 72c13.253906 0 24-10.746094 24-24s-10.746094-24-24-24-24 10.746094-24 24 10.746094 24 24 24zm0-32c4.417969 0 8 3.582031 8 8s-3.582031 8-8 8-8-3.582031-8-8 3.582031-8 8-8zm0 0" data-original="#000000" class="" style="fill:#000000"/><path d="m64 184h64v16h-64zm0 0" data-original="#000000" class="" style="fill:#000000"/><path d="m464 88v-32c0-8.835938-7.164062-16-16-16h-32c-8.835938 0-16 7.164062-16 16v32c-8.835938 0-16 7.164062-16 16v248c-.011719 1.238281.261719 2.460938.800781 3.578125l23.199219 46.308594v30.113281c0 13.253906 10.746094 24 24 24s24-10.746094 24-24v-30.113281l23.199219-46.308594c.539062-1.117187.8125-2.339844.800781-3.578125v-248c0-8.835938-7.164062-16-16-16zm-20.945312 304h-22.109376l-16-32h54.109376zm-43.054688-48v-176h8v64c0 8.835938 7.164062 16 16 16h16c8.835938 0 16-7.164062 16-16v-64h8v176zm40-112h-16v-64h16zm24-80h-64v-16h64zm-48-96h32v32h-32zm-16 48h64v16h-64zm40 328c0 4.417969-3.582031 8-8 8s-8-3.582031-8-8v-24h16zm0 0" data-original="#000000" class="" style="fill:#000000"/><path d="m160 184h144v16h-144zm0 0" data-original="#000000" class="" style="fill:#000000"/><path d="m64 232h64v16h-64zm0 0" data-original="#000000" class="" style="fill:#000000"/><path d="m160 232h144v16h-144zm0 0" data-original="#000000" class="" style="fill:#000000"/><path d="m64 280h64v16h-64zm0 0" data-original="#000000" class="" style="fill:#000000"/><path d="m160 280h144v16h-144zm0 0" data-original="#000000" class="" style="fill:#000000"/><path d="m64 328h64v16h-64zm0 0" data-original="#000000" class="" style="fill:#000000"/><path d="m160 328h144v16h-144zm0 0" data-original="#000000" class="" style="fill:#000000"/><path d="m64 376h64v16h-64zm0 0" data-original="#000000" class="" style="fill:#000000"/><path d="m160 376h144v16h-144zm0 0" data-original="#000000" class="" style="fill:#000000"/></g> </svg>
