<svg height="512pt" viewBox="-8 0 511 512" width="512pt" xmlns="http://www.w3.org/2000/svg"><path d="m138.753906 407.6875v-73.179688c0-8.429687 2.664063-16.644531 7.613282-23.472656l19.867187-27.417968c4.949219-6.828126 7.613281-15.042969 7.613281-23.472657v-102.476562h-113.695312v260.019531h68.601562c5.523438 0 10-4.476562 10-10zm0 0" fill="#fecaa8"/><path d="m154.894531 120.554688c-10.464843 0-18.949219 8.484374-18.949219 18.949218v-20.152344c0-10.464843-8.480468-18.949218-18.949218-18.949218-10.464844 0-18.945313 8.484375-18.945313 18.949218v-23.179687c0-10.464844-8.484375-18.949219-18.949219-18.949219-10.464843 0-18.949218 8.484375-18.949218 18.949219v22.546875c0-10.464844-8.484375-18.949219-18.949219-18.949219s-18.949219 8.484375-18.949219 18.949219v140.359375h37.894532v-29.5625h27.898437c31.050781 0 61.226563 10.300781 85.796875 29.292969v-119.304688c0-10.464844-8.484375-18.949218-18.949219-18.949218zm0 0" fill="#fecaa8"/><path d="m40.503906 222.585938v-36.847657c0-11.042969-8.957031-20-20.003906-20s-20 8.957031-20 20v74.40625c0 8.429688 2.664062 16.644531 7.609375 23.472657l19.871094 27.417968c4.945312 6.828125 7.609375 15.042969 7.609375 23.476563v73.175781c0 5.523438 4.476562 10 10 10h34.917968v-155.101562c-.003906-22.089844-17.914062-40-40.003906-40zm0 0" fill="#ffdfc7"/><g fill="#ffb38c"><path d="m60.152344 196.285156c-4.140625 0-7.5-3.359375-7.5-7.5v-70.066406c0-4.144531 3.359375-7.5 7.5-7.5 4.144531 0 7.5 3.355469 7.5 7.5v70.066406c0 4.140625-3.355469 7.5-7.5 7.5zm0 0"/><path d="m98.050781 196.285156c-4.144531 0-7.5-3.359375-7.5-7.5v-70.066406c0-4.144531 3.355469-7.5 7.5-7.5 4.140625 0 7.5 3.355469 7.5 7.5v70.066406c0 4.140625-3.359375 7.5-7.5 7.5zm0 0"/><path d="m135.945312 215.933594c-4.140624 0-7.5-3.359375-7.5-7.5v-70.066406c0-4.140626 3.359376-7.5 7.5-7.5 4.144532 0 7.5 3.359374 7.5 7.5v70.066406c0 4.140625-3.355468 7.5-7.5 7.5zm0 0"/></g><path d="m358.179688 104.941406v73.175782c0 8.433593-2.664063 16.648437-7.609376 23.476562l-19.871093 27.417969c-4.945313 6.828125-7.609375 15.042969-7.609375 23.472656v102.476563h113.691406v-260.019532h-68.601562c-5.519532 0-10 4.476563-10 10zm0 0" fill="#c87c5b"/><path d="m342.039062 392.074219c10.464844 0 18.949219-8.484375 18.949219-18.949219v20.152344c0 10.464844 8.484375 18.949218 18.949219 18.949218s18.949219-8.484374 18.949219-18.949218v23.179687c0 10.464844 8.484375 18.949219 18.949219 18.949219 10.464843 0 18.949218-8.484375 18.949218-18.949219v-22.546875c0 10.464844 8.484375 18.949219 18.949219 18.949219s18.949219-8.484375 18.949219-18.949219v-140.359375h-37.898438v29.5625h-27.894531c-31.050781 0-61.230469-10.304687-85.796875-29.296875v119.308594c-.003906 10.464844 8.480469 18.949219 18.945312 18.949219zm0 0" fill="#c87c5b"/><path d="m456.433594 290.042969v36.84375c0 11.046875 8.957031 20.003906 20 20.003906 11.046875 0 20.003906-8.957031 20.003906-20.003906v-74.402344c0-8.433594-2.664062-16.648437-7.613281-23.472656l-19.867188-27.421875c-4.949219-6.824219-7.613281-15.039063-7.613281-23.472656v-73.175782c0-5.523437-4.476562-10-10-10h-34.914062v155.097656c0 22.09375 17.910156 40.003907 40.003906 40.003907zm0 0" fill="#e78e6f"/><path d="m436.78125 401.410156c-4.140625 0-7.5-3.355468-7.5-7.5v-70.066406c0-4.140625 3.359375-7.5 7.5-7.5 4.144531 0 7.5 3.359375 7.5 7.5v70.066406c0 4.144532-3.355469 7.5-7.5 7.5zm0 0" fill="#a46243"/><path d="m398.886719 401.410156c-4.144531 0-7.5-3.355468-7.5-7.5v-70.066406c0-4.140625 3.355469-7.5 7.5-7.5 4.140625 0 7.5 3.359375 7.5 7.5v70.066406c0 4.144532-3.359375 7.5-7.5 7.5zm0 0" fill="#a46243"/><path d="m360.988281 381.761719c-4.140625 0-7.5-3.359375-7.5-7.5v-70.066407c0-4.144531 3.359375-7.5 7.5-7.5 4.144531 0 7.5 3.355469 7.5 7.5v70.066407c0 4.140625-3.355469 7.5-7.5 7.5zm0 0" fill="#a46243"/><path d="m417.269531 70.359375v66.769531c0 4.140625-3.363281 7.5-7.5 7.5-4.152343 0-7.5-3.359375-7.5-7.5v-66.769531c0-30.53125-24.839843-55.359375-55.363281-55.359375h-35.578125c-30.53125 0-55.359375 24.828125-55.359375 55.359375v371.28125c0 38.800781-31.5625 70.359375-70.359375 70.359375h-34.890625c-38.789062 0-70.351562-31.558594-70.351562-70.359375v-66.851563c0-4.140624 3.351562-7.5 7.5-7.5 4.140624 0 7.5 3.359376 7.5 7.5v66.851563c0 30.53125 24.832031 55.359375 55.351562 55.359375h34.890625c30.527344 0 55.359375-24.828125 55.359375-55.359375v-371.28125c0-38.800781 31.558594-70.359375 70.359375-70.359375h35.578125c38.792969 0 70.363281 31.558594 70.363281 70.359375zm0 0" fill="#f55"/><path d="m255.96875 235.84375v-104.976562c-2.832031 3.160156-5.351562 6.621093-7.5 10.320312-2.152344-3.691406-4.660156-7.148438-7.5-10.308594v104.964844zm0 0" fill="#f72b2b"/><path d="m409.765625 77.222656c5.714844 0 10.351563 4.636719 10.351563 10.351563v27.019531c0 5.71875-4.636719 10.351562-10.351563 10.351562-5.71875 0-10.355469-4.632812-10.355469-10.351562v-27.019531c0-5.71875 4.636719-10.351563 10.355469-10.351563zm0 0" fill="#d9efec"/><path d="m420.113281 112.21875h-20.703125c-4.140625 0-7.5-3.359375-7.5-7.5 0-4.144531 3.359375-7.5 7.5-7.5h20.703125c4.144531 0 7.5 3.355469 7.5 7.5 0 4.140625-3.355469 7.5-7.5 7.5zm0 0" fill="#60daff"/><path d="m87.171875 435.40625c-5.71875 0-10.351563-4.636719-10.351563-10.351562v-27.019532c0-5.71875 4.632813-10.351562 10.351563-10.351562s10.351563 4.632812 10.351563 10.351562v27.019532c0 5.714843-4.632813 10.351562-10.351563 10.351562zm0 0" fill="#d9efec"/><path d="m97.523438 415.703125h-20.703126c-4.140624 0-7.5-3.359375-7.5-7.5s3.359376-7.5 7.5-7.5h20.703126c4.140624 0 7.5 3.359375 7.5 7.5s-3.359376 7.5-7.5 7.5zm0 0" fill="#60daff"/><path d="m365.511719 205.644531c0-34.667969-28.105469-62.773437-62.769531-62.773437-23.175782 0-43.402344 12.570312-54.277344 31.25-10.871094-18.679688-31.101563-31.25-54.273438-31.25-34.667968 0-62.769531 28.105468-62.769531 62.773437 0 87.839844 117.042969 163.480469 117.042969 163.480469s117.046875-75.640625 117.046875-163.480469zm0 0" fill="#f55"/><path d="m365.515625 205.648438c0 87.839843-117.054687 163.480468-117.054687 163.480468s-11.992188-7.75-28.296876-21.164062c18.6875-12.84375 113.875-82.132813 113.875-161.351563 0-16.089843-6.042968-30.769531-16-41.867187 27.277344 6.832031 47.476563 31.496094 47.476563 60.902344zm0 0" fill="#f72b2b"/><path d="m99.453125 379.316406h-24.5625c-5.523437 0-10-4.476562-10-10v-4.875c0-5.523437 4.476563-10 10-10h24.5625c5.523437 0 10 4.476563 10 10v4.875c0 5.523438-4.476563 10-10 10zm0 0" fill="#d9efec"/><path d="m422.046875 158.1875h-24.566406c-5.519531 0-10-4.476562-10-10v-4.875c0-5.523438 4.480469-10 10-10h24.566406c5.519531 0 10 4.476562 10 10v4.875c0 5.523438-4.480469 10-10 10zm0 0" fill="#d9efec"/></svg>