<?xml version="1.0" encoding="iso-8859-1"?>
<!-- Generator: Adobe Illustrator 19.0.0, SVG Export Plug-In . SVG Version: 6.00 Build 0)  -->
<svg version="1.1" id="Capa_1" xmlns="http://www.w3.org/2000/svg" xmlns:xlink="http://www.w3.org/1999/xlink" x="0px" y="0px"
	 viewBox="0 0 496.8 496.8" style="enable-background:new 0 0 496.8 496.8;" xml:space="preserve">
<polygon style="fill:#F9E0A6;" points="144.476,224.8 144.476,184.8 168.324,161.592 168.324,65.592 24.476,65.592 24.476,128.8 
	56.476,168.8 56.476,224.8 "/>
<path style="fill:#EABD8C;" d="M96.476,128.8c-28.624-14.312-56.152-15.208-56.152-15.208L40.476,64.8l127.848,0.792v96
	L144.476,184.8C144.476,184.8,128.476,144.8,96.476,128.8z"/>
<path style="fill:#F9E0A6;" d="M72.476,224.8l-0.152-79.208l-32-32v-64c0-8.84-7.16-16-16-16s-16,7.16-16,16v88l32,32V224.8H72.476z
	"/>
<path style="fill:#8C95A4;" d="M176.476,360.8h-160c-4.416,0-8-3.584-8-8v-128c0-4.416,3.584-8,8-8h160c4.416,0,8,3.584,8,8v128
	C184.476,357.216,180.892,360.8,176.476,360.8z"/>
<path style="fill:#ECECEC;" d="M432.476,32.8h32c13.256,0,24,10.744,24,24v160c0,13.256-10.744,24-24,24h-176
	c-13.256,0-24-10.744-24-24v-160c0-13.256,10.744-24,24-24h32H432.476z"/>
<path style="fill:#B6C1CE;" d="M464.476,216.8h-176c-13.256,0-24-10.744-24-24v24c0,13.256,10.744,24,24,24h176
	c13.256,0,24-10.744,24-24v-24C488.476,206.056,477.732,216.8,464.476,216.8z"/>
<path style="fill:#798699;" d="M152.476,360.8h-120c-4.416,0-8-3.584-8-8v-128c0-4.416,3.584-8,8-8h120c8.84,0,16,7.16,16,16v112
	C168.476,353.64,161.316,360.8,152.476,360.8z"/>
<path style="fill:#AFB8C9;" d="M136.476,360.8h-128v-144h128c8.84,0,16,7.16,16,16v112C152.476,353.64,145.316,360.8,136.476,360.8z
	"/>
<rect x="144.476" y="360.8" style="fill:#ECECEC;" width="32" height="48"/>
<rect x="352.476" y="216.8" style="fill:#8C95A4;" width="48" height="24"/>
<polygon style="fill:#39C3FC;" points="352.476,64.8 296.476,64.8 296.476,112.8 456.476,112.8 456.476,64.8 400.476,64.8 "/>
<polygon style="fill:#148CE0;" points="425.276,64.8 424.476,64.8 408.476,112.8 456.476,112.8 456.476,64.8 439.676,64.8 "/>
<g>
	<circle style="fill:#8C95A4;" cx="312.476" cy="160.8" r="16"/>
	<rect x="360.476" y="144.8" style="fill:#8C95A4;" width="32" height="32"/>
	<rect x="424.476" y="144.8" style="fill:#8C95A4;" width="32" height="32"/>
</g>
<path style="fill:#FB5968;" d="M376.476,88.8L335.1,47.424c-4.24-4.24-6.624-10-6.624-16l0,0c0-12.496,10.128-22.624,22.624-22.624
	l0,0c6,0,11.76,2.384,16,6.624l9.376,9.376l9.376-9.376c4.24-4.24,10-6.624,16-6.624l0,0c12.496,0,22.624,10.128,22.624,22.624l0,0
	c0,6-2.384,11.76-6.624,16L376.476,88.8z"/>
<path style="fill:#F9E0A6;" d="M168.476,24.8v64.8c0,8.84-7.16,16-16,16l0,0c-8.84,0-16-7.16-16-16V24.8c0-8.84,7.16-16,16-16l0,0
	C161.316,8.8,168.476,15.96,168.476,24.8z"/>
<path style="fill:#EABD8C;" d="M136.476,24.8v64l14.52-79.848C142.86,9.712,136.476,16.472,136.476,24.8z"/>
<path style="fill:#F9E0A6;" d="M136.476,24.8v64.8c0,8.84-7.16,16-16,16l0,0c-8.84,0-16-7.16-16-16V24.8c0-8.84,7.16-16,16-16l0,0
	C129.316,8.8,136.476,15.96,136.476,24.8z"/>
<path style="fill:#EABD8C;" d="M104.476,24.8v64l14.52-79.848C110.86,9.712,104.476,16.472,104.476,24.8z"/>
<path style="fill:#F9E0A6;" d="M104.476,24.8v64.8c0,8.84-7.16,16-16,16l0,0c-8.84,0-16-7.16-16-16V24.8c0-8.84,7.16-16,16-16l0,0
	C97.316,8.8,104.476,15.96,104.476,24.8z"/>
<path style="fill:#EABD8C;" d="M72.476,24.8v64l14.52-79.848C78.86,9.712,72.476,16.472,72.476,24.8z"/>
<path style="fill:#F9E0A6;" d="M72.476,24.8v64.8c0,8.84-7.16,16-16,16l0,0c-8.84,0-16-7.16-16-16V24.8c0-8.84,7.16-16,16-16l0,0
	C65.316,8.8,72.476,15.96,72.476,24.8z"/>
<path style="fill:#EABD8C;" d="M40.476,24.8v64l14.52-79.848C46.86,9.712,40.476,16.472,40.476,24.8z"/>
<g>
	<rect x="112.476" y="264.8" style="fill:#231F20;" width="16" height="48"/>
	<path style="fill:#231F20;" d="M464.476,24.8h-32.768c-3.04-13.704-15.256-24-29.864-24c-8.176,0-15.872,3.184-21.656,8.976
		l-3.712,3.712l-3.712-3.712c-5.792-5.792-13.48-8.976-21.656-8.976c-14.608,0-26.816,10.296-29.864,24h-32.768
		c-17.648,0-32,14.352-32,32v160c0,17.648,14.352,32,32,32h80v132c0,55.144-44.856,100-100,100c-41.632,0-78.552-25.856-93.256-64
		h9.256v-48h8v-160h-40v-20.624l23.848-23.208V88.8V65.592V24c0-13.232-10.768-24-24-24c-6.168,0-11.744,2.408-16,6.24
		c-4.256-3.84-9.832-6.24-16-6.24s-11.744,2.408-16,6.24C100.068,2.4,94.492,0,88.324,0s-11.744,2.408-16,6.24
		C68.068,2.4,62.492,0,56.324,0c-13.232,0-24,10.768-24,24v3.064c-2.512-0.896-5.184-1.472-8-1.472c-13.232,0-24,10.768-24,24
		v91.312l32,32V208.8H0.476v160h136v48h21.792c15.456,47.384,59.856,80,110.208,80c63.96,0,116-52.04,116-116v-132h80
		c17.648,0,32-14.352,32-32v-160C496.476,39.152,482.124,24.8,464.476,24.8z M176.476,352.8h-17.472
		c0.896-2.512,1.472-5.184,1.472-8v-112c0-2.816-0.576-5.488-1.472-8h17.472V352.8z M152.324,16c4.408,0,8,3.592,8,8v41.592V88.8
		c0,4.408-3.592,8-8,8s-8-3.592-8-8V24C144.324,19.592,147.916,16,152.324,16z M120.324,16c4.408,0,8,3.592,8,8v64.8
		c0,4.408-3.592,8-8,8s-8-3.592-8-8V24C112.324,19.592,115.916,16,120.324,16z M88.324,16c4.408,0,8,3.592,8,8v64.8
		c0,4.408-3.592,8-8,8s-8-3.592-8-8V24C80.324,19.592,83.916,16,88.324,16z M48.324,24c0-4.408,3.592-8,8-8c4.408,0,8,3.592,8,8
		v64.8c0,4.408-3.592,8-8,8s-8-3.592-8-8V49.592V24z M16.324,134.28V49.592c0-4.408,3.592-8,8-8s8,3.592,8,8V88.8v28.104
		l34.344,34.344l11.312-11.312L49.844,111.8c2.072,0.584,4.216,1,6.48,1c6.168,0,11.744-2.408,16-6.24
		c4.256,3.84,9.832,6.24,16,6.24s11.744-2.408,16-6.24c4.256,3.84,9.832,6.24,16,6.24c6.168,0,11.744-2.408,16-6.24
		c4.256,3.84,9.832,6.24,16,6.24c2.816,0,5.488-0.576,8-1.472v46.888l-23.848,23.208V208.8H48.324v-42.52L16.324,134.28z
		 M16.476,352.8v-128h120c4.408,0,8,3.592,8,8v112c0,4.408-3.592,8-8,8H16.476z M152.476,368.8h16v32h-16V368.8z M351.108,16.8
		c3.904,0,7.576,1.52,10.344,4.288l15.024,15.024L391.5,21.088c2.768-2.768,6.44-4.288,10.344-4.288
		c8.072,0,14.632,6.56,14.632,14.632c0,3.904-1.52,7.576-4.288,10.344l-35.712,35.712l-35.712-35.712
		c-2.768-2.768-4.288-6.44-4.288-10.344C336.476,23.36,343.036,16.8,351.108,16.8z M376.476,100.112L403.788,72.8h44.688v32h-144
		v-32h44.688L376.476,100.112z M392.476,216.8v16h-32v-16H392.476z M464.476,232.8h-56v-16h40v-16h-144v16h40v16h-56
		c-8.824,0-16-7.176-16-16h16v-16h-16v-144c0-8.824,7.176-16,16-16h33.6c1.472,4.568,3.88,8.792,7.368,12.288l3.72,3.712h-44.688v64
		h176v-64h-44.688l3.712-3.712c3.496-3.496,5.904-7.72,7.376-12.288h33.6c8.824,0,16,7.176,16,16v144h-16v16h16
		C480.476,225.624,473.3,232.8,464.476,232.8z"/>
	<path style="fill:#231F20;" d="M312.476,136.8c-13.232,0-24,10.768-24,24s10.768,24,24,24s24-10.768,24-24
		S325.708,136.8,312.476,136.8z M312.476,168.8c-4.408,0-8-3.592-8-8s3.592-8,8-8s8,3.592,8,8S316.884,168.8,312.476,168.8z"/>
	<path style="fill:#231F20;" d="M352.476,184.8h48v-48h-48V184.8z M368.476,152.8h16v16h-16V152.8z"/>
	<path style="fill:#231F20;" d="M464.476,136.8h-48v48h48V136.8z M448.476,168.8h-16v-16h16V168.8z"/>
</g>
<g>
</g>
<g>
</g>
<g>
</g>
<g>
</g>
<g>
</g>
<g>
</g>
<g>
</g>
<g>
</g>
<g>
</g>
<g>
</g>
<g>
</g>
<g>
</g>
<g>
</g>
<g>
</g>
<g>
</g>
</svg>
