<?xml version="1.0" encoding="iso-8859-1"?>
<!-- Generator: Adobe Illustrator 19.0.0, SVG Export Plug-In . SVG Version: 6.00 Build 0)  -->
<svg version="1.1" id="Capa_1" xmlns="http://www.w3.org/2000/svg" xmlns:xlink="http://www.w3.org/1999/xlink" x="0px" y="0px"
	 viewBox="0 0 503.336 503.336" style="enable-background:new 0 0 503.336 503.336;" xml:space="preserve">
<path style="fill:#F9E0A6;" d="M243.668,167.336V299.96c0,12.632,3.744,24.984,10.752,35.504l21.248,31.872v128h176v-328H243.668z"
	/>
<path style="fill:#EABD8C;" d="M243.668,299.96c0,12.632,3.744,24.984,10.752,35.504l21.248,31.872c0,0,48-88,120-88h56v-64h-208
	V299.96z"/>
<rect x="11.668" y="423.336" style="fill:#AFB8C9;" width="272" height="32"/>
<path style="fill:#F9E0A6;" d="M387.668,119.336v112c0,13.256,10.744,24,24,24l0,0c13.256,0,24-10.744,24-24v-112
	c0-13.256-10.744-24-24-24l0,0C398.412,95.336,387.668,106.08,387.668,119.336z"/>
<g>
	<path style="fill:#EABD8C;" d="M419.668,199.336L419.668,199.336c0,13.152-3.8,25.952-10.624,37.2
		c-6.816,11.232-13.376,27.44-13.376,42.8l64-16v-64H419.668z"/>
	<path style="fill:#EABD8C;" d="M410.388,95.464c-12.648,0.68-22.72,11.056-22.72,23.872v112c0,1.664,0.176,3.288,0.496,4.864
		L410.388,95.464z"/>
</g>
<rect x="59.668" y="407.336" style="fill:#ECECEC;" width="176" height="64"/>
<path style="fill:#FB5968;" d="M124.26,271.336h-1.184c-48.272,0-87.408-39.136-87.408-87.408l0,0
	c0-16.08,4.44-31.856,12.824-45.576l75.176-123.016l75.176,123.016c8.384,13.72,12.824,29.496,12.824,45.576l0,0
	C211.668,232.2,172.532,271.336,124.26,271.336z"/>
<polygon style="fill:#ECECEC;" points="171.668,167.336 139.668,167.336 139.668,135.336 107.668,135.336 107.668,167.336 
	75.668,167.336 75.668,199.336 107.668,199.336 107.668,231.336 139.668,231.336 139.668,199.336 171.668,199.336 "/>
<path style="fill:#F9E0A6;" d="M291.668,119.336v112c0,13.256,10.744,24,24,24l0,0c13.256,0,24-10.744,24-24v-112
	c0-13.256-10.744-24-24-24l0,0C302.412,95.336,291.668,106.08,291.668,119.336z"/>
<path style="fill:#EABD8C;" d="M314.388,95.464c-12.648,0.68-22.72,11.056-22.72,23.872v112c0,1.664,0.176,3.288,0.496,4.864
	L314.388,95.464z"/>
<g>
	<path style="fill:#F9E0A6;" d="M243.668,119.336v112c0,13.256,10.744,24,24,24l0,0c13.256,0,24-10.744,24-24v-112
		c0-13.256-10.744-24-24-24l0,0C254.412,95.336,243.668,106.08,243.668,119.336z"/>
	<path style="fill:#F9E0A6;" d="M339.668,119.336v112c0,13.256,10.744,24,24,24l0,0c13.256,0,24-10.744,24-24v-112
		c0-13.256-10.744-24-24-24l0,0C350.412,95.336,339.668,106.08,339.668,119.336z"/>
</g>
<g>
	<path style="fill:#EABD8C;" d="M362.388,95.464c-12.648,0.68-22.72,11.056-22.72,23.872v112c0,1.664,0.176,3.288,0.496,4.864
		L362.388,95.464z"/>
	<path style="fill:#EABD8C;" d="M443.668,207.336h-38c-18.776,0-34-15.224-34-34v-6h72V207.336z"/>
</g>
<path style="fill:#F9E0A6;" d="M459.668,147.336h-64c-13.256,0-24,10.744-24,24s10.744,24,24,24h40v6.384
	c0,16.192-7.36,31.496-20,41.616c-12.64,10.112-20,25.424-20,41.616v14.384v196h56v-128l28.08-39.312
	c7.752-10.856,11.92-23.864,11.92-37.2V179.336C491.668,161.664,477.34,147.336,459.668,147.336z"/>
<g>
	<path style="fill:#231F20;" d="M459.668,139.336h-16v-16c0-17.648-14.352-32-32-32c-9.608,0-18.128,4.336-24,11.056
		c-5.872-6.72-14.392-11.056-24-11.056s-18.128,4.336-24,11.056c-5.872-6.72-14.392-11.056-24-11.056s-18.128,4.336-24,11.056
		c-5.872-6.72-14.392-11.056-24-11.056c-17.648,0-32,14.352-32,32v28v88v60.624c0,14.256,4.176,28.072,12.096,39.944l19.904,29.856
		v45.576h-24v-16h-192v16h-32v-32h-16v112h16v-32h32v16h192v-16h24v40h192v-133.44l26.584-37.216
		c8.776-12.28,13.416-26.752,13.416-41.848V179.336C499.668,157.28,481.724,139.336,459.668,139.336z M411.668,107.336
		c8.824,0,16,7.176,16,16v16h-32v-16C395.668,114.512,402.844,107.336,411.668,107.336z M363.668,107.336c8.824,0,16,7.176,16,16
		v20.448c-9.52,5.552-16,15.76-16,27.552s6.48,22,16,27.552v40.448c0,8.824-7.176,16-16,16s-16-7.176-16-16v-116
		C347.668,114.512,354.844,107.336,363.668,107.336z M399.228,249.248c-2.232-2.8-3.56-6.24-3.56-9.912v-36h31.968
		c-0.464,13.216-6.584,25.448-16.968,33.752C406.236,240.64,402.452,244.768,399.228,249.248z M315.668,107.336
		c8.824,0,16,7.176,16,16v116c0,8.824-7.176,16-16,16s-16-7.176-16-16v-116C299.668,114.512,306.844,107.336,315.668,107.336z
		 M251.668,123.336c0-8.824,7.176-16,16-16s16,7.176,16,16v116c0,8.824-7.176,16-16,16s-16-7.176-16-16v-88V123.336z
		 M19.668,447.336v-16h32v16H19.668z M227.668,463.336h-24v-16h-16v16h-16v-32h-16v32h-16v-16h-16v16h-16v-32h-16v32h-24v-48h160
		V463.336z M243.668,431.336h32v16h-32V431.336z M483.668,290.832c0,11.744-3.608,23-10.432,32.552l-29.568,41.392v122.56h-160v-24
		h8v-16h96v-16h-96v-16h-8v-50.424l-22.592-33.888c-6.16-9.232-9.408-19.976-9.408-31.064v-33.072
		c4.728,2.752,10.144,4.448,16,4.448c9.608,0,18.128-4.336,24-11.056c5.872,6.72,14.392,11.056,24,11.056s18.128-4.336,24-11.056
		c5.872,6.72,14.392,11.056,24,11.056c9.56,0,18.056-4.296,23.92-10.968c1.144,1.312,2.4,2.528,3.768,3.648
		c-2.392,6.624-3.688,13.672-3.688,20.936v14.384h16v-14.384c0-13.832,6.192-26.72,17-35.368c14.616-11.696,23-29.144,23-47.864
		v-14.384h-48c-8.824,0-16-7.176-16-16s7.176-16,16-16h64c13.232,0,24,10.768,24,24V290.832z"/>
	<path style="fill:#231F20;" d="M123.076,279.336h1.184c52.608,0,95.408-42.8,95.408-95.408c0-17.56-4.832-34.76-13.992-49.752
		L123.668,0L41.66,134.176c-9.16,14.992-13.992,32.192-13.992,49.752C27.668,236.536,70.468,279.336,123.076,279.336z
		 M55.316,142.52l68.352-111.848L192.02,142.52c7.616,12.48,11.648,26.792,11.648,41.408c0,43.784-35.624,79.408-79.408,79.408
		h-1.184c-43.784,0-79.408-35.624-79.408-79.408C43.668,169.312,47.7,155,55.316,142.52z"/>
	<path style="fill:#231F20;" d="M99.668,239.336h48v-32h32v-48h-32v-32h-48v32h-32v48h32V239.336z M83.668,191.336v-16h32v-32h16v32
		h32v16h-32v32h-16v-32H83.668z"/>
</g>
<g>
</g>
<g>
</g>
<g>
</g>
<g>
</g>
<g>
</g>
<g>
</g>
<g>
</g>
<g>
</g>
<g>
</g>
<g>
</g>
<g>
</g>
<g>
</g>
<g>
</g>
<g>
</g>
<g>
</g>
</svg>
