<?xml version="1.0"?>
<svg xmlns="http://www.w3.org/2000/svg" xmlns:xlink="http://www.w3.org/1999/xlink" version="1.1" x="0px" y="0px" viewBox="0 0 49 60" style="enable-background:new 0 0 49 60;" xml:space="preserve" width="512px" height="512px" class=""><g><g id="_x31_0-Medical_File">
	<path style="fill:#9E6C53;" d="M45.375,7.001H35H15H3.625C2.175,7.001,1,8.176,1,9.626v46.75c0,1.45,1.175,2.625,2.625,2.625h41.75   c1.45,0,2.625-1.175,2.625-2.625V9.626C48,8.176,46.825,7.001,45.375,7.001z" data-original="#9E6C53" class=""/>
	<polygon style="fill:#F7E6A1;" points="35,11.001 35,13.001 15,13.001 15,11.001 5,11.001 5,55.001 34,55.001 39,50.001 44,45.001    44,11.001  " data-original="#F7E6A1"/>
	<path style="fill:#C7D1D3;" d="M29,5.001c0-2.209-1.791-4-4-4c-2.209,0-4,1.791-4,4h-6v8h20v-8H29z" data-original="#C7D1D3"/>
	<polygon style="fill:#C9A721;" points="39,50.001 34,55.001 34,45.001 44,45.001  " data-original="#C9A721"/>
	<circle style="fill:#DD352E;" cx="16" cy="25.001" r="7" data-original="#DD352E"/>
	<path style="fill:#1B1A1C" d="M34,56H5c-0.552,0-1-0.448-1-1V11c0-0.552,0.448-1,1-1h10c0.552,0,1,0.448,1,1v1h18v-1   c0-0.552,0.448-1,1-1h9c0.552,0,1,0.448,1,1v34c0,0.265-0.105,0.52-0.293,0.707l-10,10C34.52,55.895,34.265,56,34,56z M6,54h27.586   L43,44.586V12h-7v1c0,0.552-0.448,1-1,1H15c-0.552,0-1-0.448-1-1v-1H6V54z" data-original="#4D007E" class="active-path" data-old_color="#483C50"/>
	<path style="fill:#1B1A1C" d="M45.375,60H3.625C1.626,60,0,58.374,0,56.375V9.625C0,7.626,1.626,6,3.625,6H15c0.552,0,1,0.448,1,1   v5h18V7c0-0.552,0.448-1,1-1h10.375C47.374,6,49,7.626,49,9.625v46.75C49,58.374,47.374,60,45.375,60z M3.625,8   C2.729,8,2,8.729,2,9.625v46.75C2,57.271,2.729,58,3.625,58h41.75C46.271,58,47,57.271,47,56.375V9.625C47,8.729,46.271,8,45.375,8   H36v5c0,0.552-0.448,1-1,1H15c-0.552,0-1-0.448-1-1V8H3.625z" data-original="#4D007E" class="active-path" data-old_color="#483C50"/>
	<path style="fill:#1B1A1C" d="M35,14H15c-0.552,0-1-0.448-1-1V5c0-0.552,0.448-1,1-1h5.101C20.565,1.721,22.585,0,25,0   s4.435,1.721,4.899,4H35c0.552,0,1,0.448,1,1v8C36,13.552,35.552,14,35,14z M16,12h18V6h-5c-0.552,0-1-0.448-1-1   c0-1.654-1.346-3-3-3s-3,1.346-3,3c0,0.552-0.448,1-1,1h-5V12z M30,5h0.01H30z" data-original="#4D007E" class="active-path" data-old_color="#483C50"/>
	<path style="fill:#1B1A1C" d="M25,9c-0.552,0-1-0.448-1-1V5c0-0.552,0.448-1,1-1s1,0.448,1,1v3C26,8.552,25.552,9,25,9z" data-original="#4D007E" class="active-path" data-old_color="#483C50"/>
	<path style="fill:#1B1A1C" d="M34,56c-0.129,0-0.259-0.025-0.383-0.076C33.244,55.769,33,55.404,33,55V45c0-0.552,0.448-1,1-1h10   c0.404,0,0.769,0.244,0.924,0.617c0.155,0.374,0.069,0.804-0.217,1.09l-10,10C34.516,55.898,34.26,56,34,56z M35,46v6.586   L41.586,46H35z" data-original="#4D007E" class="active-path" data-old_color="#483C50"/>
	<path style="fill:#1B1A1C" d="M29,40H18c-0.552,0-1-0.448-1-1s0.448-1,1-1h11c0.552,0,1,0.448,1,1S29.552,40,29,40z" data-original="#4D007E" class="active-path" data-old_color="#483C50"/>
	<path style="fill:#1B1A1C" d="M39,40h-6c-0.552,0-1-0.448-1-1s0.448-1,1-1h6c0.552,0,1,0.448,1,1S39.552,40,39,40z" data-original="#4D007E" class="active-path" data-old_color="#483C50"/>
	<path style="fill:#1B1A1C" d="M14,40h-4c-0.552,0-1-0.448-1-1s0.448-1,1-1h4c0.552,0,1,0.448,1,1S14.552,40,14,40z" data-original="#4D007E" class="active-path" data-old_color="#483C50"/>
	<path style="fill:#1B1A1C" d="M29,50H18c-0.552,0-1-0.448-1-1s0.448-1,1-1h11c0.552,0,1,0.448,1,1S29.552,50,29,50z" data-original="#4D007E" class="active-path" data-old_color="#483C50"/>
	<path style="fill:#1B1A1C" d="M14,50h-4c-0.552,0-1-0.448-1-1s0.448-1,1-1h4c0.552,0,1,0.448,1,1S14.552,50,14,50z" data-original="#4D007E" class="active-path" data-old_color="#483C50"/>
	<path style="fill:#1B1A1C" d="M21,45H10c-0.552,0-1-0.448-1-1s0.448-1,1-1h11c0.552,0,1,0.448,1,1S21.552,45,21,45z" data-original="#4D007E" class="active-path" data-old_color="#483C50"/>
	<path style="fill:#1B1A1C" d="M29,45h-4c-0.552,0-1-0.448-1-1s0.448-1,1-1h4c0.552,0,1,0.448,1,1S29.552,45,29,45z" data-original="#4D007E" class="active-path" data-old_color="#483C50"/>
	<path style="fill:#1B1A1C" d="M33,35h-6c-0.552,0-1-0.448-1-1s0.448-1,1-1h6c0.552,0,1,0.448,1,1S33.552,35,33,35z" data-original="#4D007E" class="active-path" data-old_color="#483C50"/>
	<path style="fill:#1B1A1C" d="M39,35h-2c-0.552,0-1-0.448-1-1s0.448-1,1-1h2c0.552,0,1,0.448,1,1S39.552,35,39,35z" data-original="#4D007E" class="active-path" data-old_color="#483C50"/>
	<path style="fill:#1B1A1C" d="M39,30h-6c-0.552,0-1-0.448-1-1s0.448-1,1-1h6c0.552,0,1,0.448,1,1S39.552,30,39,30z" data-original="#4D007E" class="active-path" data-old_color="#483C50"/>
	<path style="fill:#1B1A1C" d="M29,30h-2c-0.552,0-1-0.448-1-1s0.448-1,1-1h2c0.552,0,1,0.448,1,1S29.552,30,29,30z" data-original="#4D007E" class="active-path" data-old_color="#483C50"/>
	<path style="fill:#1B1A1C" d="M33,25h-6c-0.552,0-1-0.448-1-1s0.448-1,1-1h6c0.552,0,1,0.448,1,1S33.552,25,33,25z" data-original="#4D007E" class="active-path" data-old_color="#483C50"/>
	<path style="fill:#1B1A1C" d="M39,25h-2c-0.552,0-1-0.448-1-1s0.448-1,1-1h2c0.552,0,1,0.448,1,1S39.552,25,39,25z" data-original="#4D007E" class="active-path" data-old_color="#483C50"/>
	<path style="fill:#1B1A1C" d="M39,20h-6c-0.552,0-1-0.448-1-1s0.448-1,1-1h6c0.552,0,1,0.448,1,1S39.552,20,39,20z" data-original="#4D007E" class="active-path" data-old_color="#483C50"/>
	<path style="fill:#1B1A1C" d="M29,20h-2c-0.552,0-1-0.448-1-1s0.448-1,1-1h2c0.552,0,1,0.448,1,1S29.552,20,29,20z" data-original="#4D007E" class="active-path" data-old_color="#483C50"/>
	<path style="fill:#1B1A1C" d="M16,33c-4.411,0-8-3.589-8-8s3.589-8,8-8s8,3.589,8,8S20.411,33,16,33z M16,19c-3.309,0-6,2.691-6,6   s2.691,6,6,6s6-2.691,6-6S19.309,19,16,19z" data-original="#4D007E" class="active-path" data-old_color="#483C50"/>
	<path style="fill:#1B1A1C" d="M16,29c-0.552,0-1-0.448-1-1v-6c0-0.552,0.448-1,1-1s1,0.448,1,1v6C17,28.552,16.552,29,16,29z" data-original="#4D007E" class="active-path" data-old_color="#483C50"/>
	<path style="fill:#1B1A1C" d="M19,26h-6c-0.552,0-1-0.448-1-1s0.448-1,1-1h6c0.552,0,1,0.448,1,1S19.552,26,19,26z" data-original="#4D007E" class="active-path" data-old_color="#483C50"/>
</g></g> </svg>
